<svg xmlns="http://www.w3.org/2000/svg" width="24" height="24"><g fill="none" fill-rule="evenodd"><path d="M0 0h24v24H0z"/><path fill="#000" fill-rule="nonzero" d="M11.658 8.687l-3.764 3.84a3.552 3.552 0 000 4.973 3.453 3.453 0 004.734.186l.18-.168 6.585-6.717a5.466 5.466 0 000-7.653 5.293 5.293 0 00-7.302-.245l-.256.245-6.568 6.699a7.38 7.38 0 000 10.332 7.132 7.132 0 009.89.284l.295-.284 3.764-3.839a1 1 0 00-1.428-1.4l-3.836 3.911a5.132 5.132 0 01-7.257-.072 5.38 5.38 0 010-7.532l6.614-6.745a3.292 3.292 0 014.656.046 3.466 3.466 0 010 4.852l-6.589 6.72a1.453 1.453 0 01-2.054-.02 1.552 1.552 0 010-2.173l3.764-3.84a1 1 0 00-1.428-1.4z"/></g></svg>