<svg xmlns="http://www.w3.org/2000/svg" width="24" height="24"><g fill="none" fill-rule="evenodd"><path d="M0 0h24v24H0z"/><path fill="#fff" fill-rule="nonzero" d="M19.883 16.007L20 16a1 1 0 01.993.883L21 17v2h2a1 1 0 01.993.883L24 20a1 1 0 01-.883.993L23 21h-2v2a1 1 0 01-.883.993L20 24a1 1 0 01-.993-.883L19 23v-2h-2a1 1 0 01-.993-.883L16 20a1 1 0 01.883-.993L17 19h2v-2a1 1 0 01.883-.993L20 16l-.117.007zM8.414 2h5.172a2 2 0 011.284.467l.13.119L16.414 4H18a3 3 0 012.995 2.824L21 7v5a1 1 0 01-1.993.117L19 12V7a1 1 0 00-.883-.993L18 6h-1.586a2 2 0 01-1.284-.467L15 5.414 13.586 4H8.414L7 5.414a2 2 0 01-1.238.578L5.586 6H4a1 1 0 00-.993.883L3 7v11a1 1 0 00.883.993L4 19h9a1 1 0 01.117 1.993L13 21H4a3 3 0 01-2.995-2.824L1 18V7a3 3 0 012.824-2.995L4 4h1.586L7 2.586a2 2 0 011.238-.578L8.414 2h5.172-5.172zM11 7a5 5 0 110 10 5 5 0 010-10zm0 2a3 3 0 100 6 3 3 0 000-6z"/></g></svg>