<svg xmlns="http://www.w3.org/2000/svg" width="24" height="24"><g fill="none" fill-rule="evenodd"><path d="M0 0h24v24H0z"/><path fill="#000" fill-rule="nonzero" d="M3.247 4.341a1 1 0 011.312-.17l.1.076 16 14a1 1 0 01-1.218 1.582l-.1-.076-2.663-2.33c-1.366.646-2.944 1.077-4.674 1.077C6.179 18.5 2 13.54 2 12c0-.865 1.327-2.807 3.516-4.345L3.34 5.753a1 1 0 01-.094-1.412zM8 12a4 4 0 006.256 3.304l-2.074-1.815a1.5 1.5 0 01-1.681-1.472l-2.075-1.815A3.983 3.983 0 008 12zm4.004-6.5C17.85 5.5 22 10.46 22 12c0 .636-.703 1.854-1.94 3.065l-4.093-3.58a4.001 4.001 0 00-3.765-3.48L11.984 8l-2.5-2.187c.797-.199 1.64-.313 2.52-.313z"/></g></svg>