<svg xmlns="http://www.w3.org/2000/svg" width="19" height="14"><path fill="#c4c4c4" d="M10.19 2.252a1 1 0 01.143.514v8.468a1 1 0 01-1.514.857l-2.676-1.605a1.667 1.667 0 01-.81-1.43V4.944c0-.586.307-1.128.81-1.43L8.819 1.91a1 1 0 011.372.343zM3.334 4a1 1 0 011 1v4a1 1 0 11-2 0V5a1 1 0 011-1zm12.364.924a.5.5 0 01.7.69l-.057.07-1.314 1.334 1.314 1.334a.5.5 0 01-.643.76l-.07-.058-1.302-1.324-1.302 1.324-.069.058a.5.5 0 01-.7-.69l.056-.07 1.313-1.334-1.313-1.334a.5.5 0 01.644-.76l.069.059 1.302 1.322 1.303-1.322.069-.059z"/></svg>