<svg xmlns="http://www.w3.org/2000/svg" width="24" height="24"><g fill="none" fill-rule="evenodd"><path d="M0 0h24v24H0z"/><path fill="#000" fill-rule="nonzero" d="M15.508 5.431c.128.077.246.17.352.275l2.434 2.434a1.83 1.83 0 01-.353 2.864l-1.914 1.149c.255 1.52-.363 3.019-1.778 4.434a.83.83 0 01-1.174 0l-2.245-2.244-3.243 3.244a.83.83 0 01-1.089.074l-.085-.074a.83.83 0 01-.074-1.089l.074-.085 3.244-3.244-2.244-2.244a.83.83 0 010-1.173c1.344-1.345 2.765-1.97 4.207-1.81l.227.031 1.149-1.914a1.83 1.83 0 012.512-.628zm-1.089 1.482l-1.463 2.44a.83.83 0 01-.975.36c-.897-.3-1.804-.101-2.774.659l4.422 4.421.144-.193c.64-.897.794-1.743.514-2.581a.83.83 0 01.36-.974l2.457-1.476.016-.014a.17.17 0 000-.241L14.687 6.88l-.033-.026a.17.17 0 00-.235.06z"/></g></svg>