<svg xmlns="http://www.w3.org/2000/svg" width="24" height="24"><g fill="none" fill-rule="evenodd"><path d="M0 0h24v24H0z"/><path fill="#000" fill-rule="nonzero" d="M12 1c6.075 0 11 4.925 11 11s-4.925 11-11 11S1 18.075 1 12 5.925 1 12 1zm0 2a9 9 0 100 18 9 9 0 000-18zM6.666 13.65a.95.95 0 011.278.415A4.55 4.55 0 0012 16.55a4.55 4.55 0 004.053-2.479.95.95 0 011.69.866A6.449 6.449 0 0112 18.45a6.449 6.449 0 01-5.748-3.522.95.95 0 01.414-1.278zM8.75 8C9.44 8 10 8.672 10 9.5S9.44 11 8.75 11 7.5 10.328 7.5 9.5 8.06 8 8.75 8zm6.5 0c.69 0 1.25.672 1.25 1.5s-.56 1.5-1.25 1.5S14 10.328 14 9.5 14.56 8 15.25 8z"/></g></svg>